<svg xmlns="http://www.w3.org/2000/svg" width="56" height="47" viewBox="0 0 56 47">
    <g fill="none" fill-rule="evenodd">
        <path fill="#FFF" d="M-416-99H950v3389H-416z"/>
        <g fill-rule="nonzero">
            <path fill="#464655" d="M53.639.078H1.916A1.914 1.914 0 0 0 0 1.99v30.592h55.554V1.99A1.914 1.914 0 0 0 53.64.078zm-.958 29.636H2.874V2.946H52.68v26.768z"/>
            <g fill="#FFF">
                <path d="M22.03 14.896c.265 0 .479.214.479.478h1.437V13.94H22.03a.478.478 0 1 1 0-.956h1.916V6.77h-8.62v8.604h6.225c0-.264.214-.478.479-.478z"/>
                <path d="M2.874 29.714H52.68V2.946H2.874v26.768zm21.072-2.39H22.03a.478.478 0 1 1 0-.956h1.916a.478.478 0 1 1 0 .956zm-1.916-4.78c.265 0 .479.214.479.478v1.912a.478.478 0 0 1-.958 0v-1.912c0-.264.214-.478.479-.478zm-.479-1.434v-1.912a.478.478 0 0 1 .958 0v1.912a.478.478 0 0 1-.958 0zm6.226 6.214h-1.916a.478.478 0 1 1 0-.956h1.916a.478.478 0 1 1 0 .956zm8.142-2.39a.478.478 0 0 1-.958 0v-1.912a.478.478 0 0 1 .958 0v1.912zm0-3.824a.478.478 0 0 1-.958 0v-1.912a.478.478 0 0 1 .958 0v1.912zm0-3.824a.478.478 0 0 1-.958 0v-1.912a.478.478 0 0 1 .958 0v1.912zm4.31.956V5.814c0-.528.429-.956.958-.956h8.62c.53 0 .958.428.958.956v21.032a.957.957 0 0 1-.958.956h-8.62a.957.957 0 0 1-.958-.956v-8.604zm-6.705-5.258h1.916a.478.478 0 1 1 0 .956h-1.916a.478.478 0 1 1 0-.956zm0 13.384h1.916a.478.478 0 1 1 0 .956h-1.916a.478.478 0 1 1 0-.956zm-3.831-13.384h1.915a.478.478 0 1 1 0 .956h-1.915a.478.478 0 1 1 0-.956zm0 13.384h1.915a.478.478 0 1 1 0 .956h-1.915a.478.478 0 1 1 0-.956zM13.41 5.814c0-.528.428-.956.957-.956h10.536c.53 0 .958.428.958.956v7.17h1.916a.478.478 0 1 1 0 .956h-1.916v2.39a.954.954 0 0 1-.047.297l2.513 2.247a.383.383 0 0 1-.102.638l-.952.417.85 1.934a.478.478 0 0 1-.877.384l-.85-1.934-.953.418a.384.384 0 0 1-.54-.357l.041-3.09-.04.002h-2.395a.478.478 0 0 1-.958 0h-7.184a.957.957 0 0 1-.958-.956V5.814zm-8.62 0c0-.528.428-.956.957-.956h2.874c.529 0 .957.428.957.956v21.032a.957.957 0 0 1-.957.956H5.747a.957.957 0 0 1-.958-.956V5.814z"/>
            </g>
            <path fill="#BEC8DC" d="M0 36.406c0 1.056.858 1.912 1.916 1.912h51.722a1.914 1.914 0 0 0 1.916-1.912v-3.824H0v3.824zm27.777-2.39c.794 0 1.437.642 1.437 1.434 0 .792-.643 1.434-1.437 1.434a1.435 1.435 0 0 1-1.437-1.434c0-.792.644-1.434 1.437-1.434z"/>
            <path fill="#AFBBD0" d="M19.276 45.01h17.002l-.599-4.78H19.875z"/>
            <path fill="#BEC8DC" d="M19.157 45.01a.957.957 0 1 0 0 1.912h17.24a.957.957 0 1 0 0-1.912H19.157z"/>
            <g fill="#96A5B9" transform="translate(19.856 34.005)">
                <path d="M.019 6.225h15.804l-.24-1.912H.259z"/>
                <ellipse cx="7.921" cy="1.445" rx="1.437" ry="1.434"/>
            </g>
            <path fill="#BEC8DC" d="M5.747 27.802h2.874a.957.957 0 0 0 .957-.956V5.814a.957.957 0 0 0-.957-.956H5.747a.957.957 0 0 0-.958.956v21.032c0 .528.429.956.958.956zM6.705 6.77h.958a.957.957 0 1 1 0 1.912h-.958a.957.957 0 1 1 0-1.912zm0 2.868h.958a.957.957 0 1 1 0 1.912h-.958a.957.957 0 1 1 0-1.912zm0 2.868h.958a.957.957 0 1 1 0 1.912h-.958a.957.957 0 1 1 0-1.912zm0 2.868h.958a.957.957 0 1 1 0 1.912h-.958a.957.957 0 1 1 0-1.912zm0 2.868h.958a.957.957 0 1 1 0 1.912h-.958a.957.957 0 1 1 0-1.912zm-.958 4.78c0-.528.429-.956.958-.956h.958c.529 0 .958.428.958.956v1.912a.957.957 0 0 1-.958.956h-.958a.957.957 0 0 1-.958-.956v-1.912z"/>
            <path fill="#E4EAF6" d="M6.705 8.682h.958a.957.957 0 1 0 0-1.912h-.958a.957.957 0 1 0 0 1.912z"/>
            <path fill="#96A5B9" d="M6.705 11.55h.958a.957.957 0 1 0 0-1.912h-.958a.957.957 0 1 0 0 1.912z"/>
            <g fill="#E4EAF6">
                <path d="M6.705 14.418h.958a.957.957 0 1 0 0-1.912h-.958a.957.957 0 1 0 0 1.912zM6.705 17.286h.958a.957.957 0 1 0 0-1.912h-.958a.957.957 0 1 0 0 1.912zM6.705 20.154h.958a.957.957 0 1 0 0-1.912h-.958a.957.957 0 1 0 0 1.912z"/>
            </g>
            <path fill="#96A5B9" d="M6.705 25.89h.958a.957.957 0 0 0 .958-.956v-1.912a.957.957 0 0 0-.958-.956h-.958a.957.957 0 0 0-.958.956v1.912c0 .528.429.956.958.956z"/>
            <g fill="#BEC8DC">
                <path d="M50.765 5.814a.957.957 0 0 0-.958-.956h-8.62a.957.957 0 0 0-.958.956v5.736h10.536V5.814zm-1.437 4.78h-7.662a.478.478 0 1 1 0-.956H49.328a.478.478 0 1 1 0 .956zm0-1.912h-7.662a.478.478 0 1 1 0-.956h7.662a.478.478 0 1 1 0 .956zm0-1.912h-7.662a.478.478 0 1 1 0-.956h7.662a.478.478 0 1 1 0 .956zM41.187 27.802h8.62a.957.957 0 0 0 .958-.956v-8.604H40.23v8.604c0 .528.429.956.958.956zm4.31-8.604h3.831a.478.478 0 1 1 0 .956h-3.831a.478.478 0 1 1 0-.956zm0 1.912h3.831a.478.478 0 1 1 0 .956h-3.831a.478.478 0 1 1 0-.956zm0 1.912h3.831a.478.478 0 1 1 0 .956h-3.831a.478.478 0 1 1 0-.956zm0 1.912h3.831a.478.478 0 1 1 0 .956h-3.831a.478.478 0 1 1 0-.956zm-1.916-5.736a.478.478 0 1 1 .001.957.478.478 0 0 1 0-.957zm0 1.912a.478.478 0 1 1 .001.957.478.478 0 0 1 0-.957zm0 1.912a.478.478 0 1 1 .001.957.478.478 0 0 1 0-.957zm0 1.912a.478.478 0 1 1 .001.957.478.478 0 0 1 0-.957zm-1.915-5.736a.478.478 0 1 1 0 .957.478.478 0 0 1 0-.957zm0 1.912a.478.478 0 1 1 0 .957.478.478 0 0 1 0-.957zm0 1.912a.478.478 0 1 1 0 .957.478.478 0 0 1 0-.957zm0 1.912a.478.478 0 1 1 0 .957.478.478 0 0 1 0-.957z"/>
            </g>
            <g fill="#96A5B9">
                <path d="M50.765 11.55H40.23v6.692h10.536V11.55zm-8.141 5.736h-.958a.478.478 0 1 1 0-.956h.958a.478.478 0 1 1 0 .956zm0-1.912h-.958a.478.478 0 1 1 0-.956h.958a.478.478 0 1 1 0 .956zm0-1.912h-.958a.478.478 0 1 1 0-.956h.958a.478.478 0 1 1 0 .956zm6.704 3.824H44.54a.478.478 0 1 1 0-.956h4.79a.478.478 0 1 1 0 .956zm0-1.912H44.54a.478.478 0 1 1 0-.956h4.79a.478.478 0 1 1 0 .956zm0-1.912H44.54a.478.478 0 1 1 0-.956h4.79a.478.478 0 1 1 0 .956zM49.328 5.814h-5.747a.478.478 0 1 1 0 .956h5.747a.478.478 0 1 0 0-.956zM42.145 6.292c0-.264.214-.478.479-.478h-.958a.478.478 0 1 0 0 .956h.958a.478.478 0 0 1-.48-.478zM49.328 9.638h-3.83a.478.478 0 1 1 0 .956h3.83a.478.478 0 1 0 0-.956zM44.06 10.116c0-.264.215-.478.48-.478h-2.874a.478.478 0 1 0 0 .956h2.873a.479.479 0 0 1-.479-.478z"/>
            </g>
            <path fill="#BEC8DC" d="M49.328 12.506H44.54a.478.478 0 1 0 0 .956h4.79a.478.478 0 1 0 0-.956z"/>
            <g fill="#96A5B9">
                <path d="M46.934 8.204c0-.264.214-.478.479-.478h-5.747a.478.478 0 1 0 0 .956h5.747a.479.479 0 0 1-.48-.478zM49.328 7.726h-.957a.478.478 0 1 1 0 .956h.957a.478.478 0 1 0 0-.956z"/>
            </g>
            <g fill="#E4EAF6">
                <path d="M44.06 6.292a.478.478 0 0 0-.479-.478h-.958a.478.478 0 1 0 0 .956h.958a.478.478 0 0 0 .48-.478zM45.976 10.116a.478.478 0 0 0-.479-.478h-.958a.478.478 0 1 0 0 .956h.958a.479.479 0 0 0 .479-.478zM42.624 12.506h-.958a.478.478 0 1 0 0 .956h.958a.478.478 0 1 0 0-.956z"/>
            </g>
            <path fill="#BEC8DC" d="M49.328 14.418H44.54a.478.478 0 1 0 0 .956h4.79a.478.478 0 1 0 0-.956z"/>
            <path fill="#E4EAF6" d="M42.624 14.418h-.958a.478.478 0 1 0 0 .956h.958a.478.478 0 1 0 0-.956z"/>
            <path fill="#BEC8DC" d="M49.328 16.33H44.54a.478.478 0 1 0 0 .956h4.79a.478.478 0 1 0 0-.956z"/>
            <g fill="#E4EAF6">
                <path d="M42.624 16.33h-.958a.478.478 0 1 0 0 .956h.958a.478.478 0 1 0 0-.956zM41.666 22.066a.478.478 0 1 0 0-.957.478.478 0 0 0 0 .957zM41.666 20.154a.478.478 0 1 0 0-.957.478.478 0 0 0 0 .957zM41.666 25.89a.478.478 0 1 0 0-.957.478.478 0 0 0 0 .957zM41.666 23.978a.478.478 0 1 0 0-.957.478.478 0 0 0 0 .957z"/>
            </g>
            <g fill="#96A5B9">
                <path d="M43.581 22.066a.478.478 0 1 0 .001-.957.478.478 0 0 0 0 .957zM43.581 20.154a.478.478 0 1 0 .001-.957.478.478 0 0 0 0 .957zM43.581 25.89a.478.478 0 1 0 .001-.957.478.478 0 0 0 0 .957zM43.581 23.978a.478.478 0 1 0 .001-.957.478.478 0 0 0 0 .957zM45.497 22.066h3.831a.478.478 0 1 0 0-.956h-3.831a.478.478 0 1 0 0 .956zM45.497 20.154h3.831a.478.478 0 1 0 0-.956h-3.831a.478.478 0 1 0 0 .956zM45.497 25.89h3.831a.478.478 0 1 0 0-.956h-3.831a.478.478 0 1 0 0 .956zM45.497 23.978h3.831a.478.478 0 1 0 0-.956h-3.831a.478.478 0 1 0 0 .956z"/>
            </g>
            <path fill="#E4EAF6" d="M48.85 8.204a.478.478 0 0 0-.48-.478h-.957a.478.478 0 1 0 0 .956h.958a.479.479 0 0 0 .478-.478z"/>
            <path fill="#F5A623" d="M14.367 17.286h7.184v-1.912h-6.226V6.77h8.62v6.214a.478.478 0 1 1 0 .956v1.434H22.51v1.912h2.394l.041-.002.008-.574c.004-.33.395-.501.64-.281l.222.198a.954.954 0 0 0 .047-.297v-2.39a.478.478 0 1 1 0-.956v-7.17a.957.957 0 0 0-.957-.956H14.368a.957.957 0 0 0-.958.956V16.33c0 .529.428.956.957.956z"/>
            <g fill="#96A5B9">
                <path d="M22.03 21.588a.478.478 0 0 0 .479-.478v-1.912a.478.478 0 0 0-.958 0v1.912c0 .264.214.478.479.478zM33.524 27.324h1.916a.478.478 0 1 0 0-.956h-1.916a.478.478 0 1 0 0 .956zM35.44 22.544a.478.478 0 0 0-.48.478v1.912a.478.478 0 0 0 .959 0v-1.912a.478.478 0 0 0-.48-.478zM33.524 13.94h1.916a.478.478 0 1 0 0-.956h-1.916a.478.478 0 1 0 0 .956zM35.44 14.896a.478.478 0 0 0-.48.478v1.912a.478.478 0 0 0 .959 0v-1.912a.478.478 0 0 0-.48-.478zM27.777 26.368h-1.916a.478.478 0 1 0 0 .956h1.916a.478.478 0 1 0 0-.956zM22.03 14.896a.478.478 0 0 0-.479.478v1.912a.478.478 0 0 0 .958 0v-1.912a.478.478 0 0 0-.479-.478zM23.946 26.368H22.03a.478.478 0 1 0 0 .956h1.916a.478.478 0 1 0 0-.956zM21.551 24.934a.478.478 0 0 0 .958 0v-1.912a.478.478 0 0 0-.958 0v1.912zM35.44 18.72a.478.478 0 0 0-.48.478v1.912a.478.478 0 0 0 .959 0v-1.912a.478.478 0 0 0-.48-.478zM29.693 13.94h1.915a.478.478 0 1 0 0-.956h-1.915a.478.478 0 1 0 0 .956zM21.551 13.462c0 .264.214.478.48.478h1.915a.478.478 0 1 0 0-.956H22.03a.478.478 0 0 0-.479.478zM29.693 27.324h1.915a.478.478 0 1 0 0-.956h-1.915a.478.478 0 1 0 0 .956zM25.382 13.462c0 .264.215.478.48.478h1.915a.478.478 0 1 0 0-.956h-1.916a.478.478 0 0 0-.479.478z"/>
            </g>
            <path fill="#464655" d="M24.951 16.71l-.007.574-.04 3.09a.384.384 0 0 0 .539.356l.952-.417.851 1.934a.479.479 0 0 0 .877-.384l-.85-1.934.952-.418a.383.383 0 0 0 .102-.637l-2.513-2.247-.222-.198a.384.384 0 0 0-.64.28z"/>
        </g>
    </g>
</svg>
